<svg width="260" height="98" viewBox="0 0 260 98" fill="none" xmlns="http://www.w3.org/2000/svg">
<path d="M219.248 97.4433C210.998 97.4433 203.784 95.4564 197.608 91.4827C191.474 87.5089 186.745 81.8506 183.419 74.5078C180.093 67.165 178.43 58.5696 178.43 48.7216C178.43 38.7873 180.093 30.1487 183.419 22.8059C186.745 15.4631 191.474 9.8264 197.608 5.89584C203.784 1.96528 210.998 0 219.248 0C227.541 0 234.754 1.96528 240.887 5.89584C247.021 9.8264 251.729 15.4631 255.011 22.8059C258.337 30.1487 260 38.7873 260 48.7216C260 58.5696 258.337 67.165 255.011 74.5078C251.729 81.8506 247.021 87.5089 240.887 91.4827C234.754 95.4564 227.541 97.4433 219.248 97.4433ZM219.248 74.9614C222.833 74.9614 225.899 73.9247 228.448 71.8515C231.039 69.7782 232.983 66.7763 234.279 62.8457C235.618 58.872 236.287 54.164 236.287 48.7216C236.287 43.193 235.618 38.4849 234.279 34.5976C232.983 30.667 231.039 27.6651 228.448 25.5918C225.899 23.5186 222.833 22.4819 219.248 22.4819C215.663 22.4819 212.596 23.5186 210.047 25.5918C207.499 27.6651 205.534 30.667 204.152 34.5976C202.813 38.4849 202.143 43.193 202.143 48.7216C202.143 54.164 202.813 58.872 204.152 62.8457C205.534 66.7763 207.499 69.7782 210.047 71.8515C212.596 73.9247 215.663 74.9614 219.248 74.9614Z" fill="black"/>
<path d="M127.635 97.4433C119.385 97.4433 112.172 95.4564 105.996 91.4827C99.8621 87.5089 95.1325 81.8506 91.8067 74.5078C88.4808 67.165 86.8179 58.5696 86.8179 48.7216C86.8179 38.7873 88.4808 30.1487 91.8067 22.8059C95.1325 15.4631 99.8621 9.8264 105.996 5.89584C112.172 1.96528 119.385 0 127.635 0C135.928 0 143.141 1.96528 149.275 5.89584C155.408 9.8264 160.116 15.4631 163.399 22.8059C166.725 30.1487 168.388 38.7873 168.388 48.7216C168.388 58.5696 166.725 67.165 163.399 74.5078C160.116 81.8506 155.408 87.5089 149.275 91.4827C143.141 95.4564 135.928 97.4433 127.635 97.4433ZM127.635 74.9614C131.22 74.9614 134.287 73.9247 136.835 71.8515C139.427 69.7782 141.371 66.7763 142.666 62.8457C144.005 58.872 144.675 54.164 144.675 48.7216C144.675 43.193 144.005 38.4849 142.666 34.5976C141.371 30.667 139.427 27.6651 136.835 25.5918C134.287 23.5186 131.22 22.4819 127.635 22.4819C124.05 22.4819 120.984 23.5186 118.435 25.5918C115.887 27.6651 113.921 30.667 112.539 34.5976C111.2 38.4849 110.531 43.193 110.531 48.7216C110.531 54.164 111.2 58.872 112.539 62.8457C113.921 66.7763 115.887 69.7782 118.435 71.8515C120.984 73.9247 124.05 74.9614 127.635 74.9614Z" fill="black"/>
<path d="M7.83952 1.81412H70.6205V23.0003H28.6369L24.5552 58.3105L24.8791 41.4653H29.22L24.5552 58.3105H2.07326L7.83952 1.81412ZM39.0032 97.4433C32.9994 97.4433 27.3411 96.4499 22.0284 94.463C16.7589 92.4329 12.202 89.6254 8.35784 86.0404C4.55686 82.4122 1.77091 78.2225 0 73.4712L22.3524 66.15C23.4322 69.4759 25.4191 72.1322 28.313 74.1191C31.2501 76.106 34.6623 77.0994 38.5497 77.0994C41.4436 77.0994 43.992 76.5379 46.1949 75.4149C48.3977 74.2919 50.1038 72.7586 51.3132 70.8149C52.5226 68.828 53.1273 66.6036 53.1273 64.1416C53.1273 61.5932 52.5226 59.3471 51.3132 57.4035C50.1038 55.4166 48.3977 53.8832 46.1949 52.8034C43.992 51.7236 41.4868 51.1837 38.6793 51.1837C35.6558 51.1837 32.9994 51.8316 30.7102 53.1273C28.421 54.3799 26.6932 56.1077 25.527 58.3105H19.6312C20.4087 52.9546 22.1148 48.3329 24.7496 44.4456C27.3843 40.5582 30.6022 37.6427 34.4032 35.699C38.2474 33.7553 42.3291 32.7835 46.6484 32.7835C51.6588 32.7835 56.4748 34.0145 61.0964 36.4765C65.7181 38.9385 69.4975 42.5235 72.4346 47.2315C75.3717 51.8964 76.8403 57.3819 76.8403 63.688C76.8403 70.167 75.2205 75.9764 71.9811 81.1164C68.7416 86.2132 64.2495 90.2085 58.5049 93.1024C52.7602 95.9964 46.2597 97.4433 39.0032 97.4433Z" fill="black"/>
</svg>
