<svg width="260" height="100" viewBox="0 0 260 100" fill="none" xmlns="http://www.w3.org/2000/svg">
<path d="M219.547 99.5773C211.381 99.5773 204.231 97.5469 198.095 93.4861C192.004 89.4253 187.325 83.6432 184.059 76.1395C180.793 68.6359 179.16 59.8523 179.16 49.7886C179.16 39.6367 180.793 30.8089 184.059 23.3053C187.325 15.8017 192.004 10.0416 198.095 6.02496C204.231 2.00832 211.381 0 219.547 0C227.801 0 234.951 2.00832 240.998 6.02496C247.089 10.0416 251.768 15.8017 255.034 23.3053C258.345 30.8089 260 39.6367 260 49.7886C260 59.8523 258.345 68.6359 255.034 76.1395C251.768 83.6432 247.089 89.4253 240.998 93.4861C234.951 97.5469 227.801 99.5773 219.547 99.5773ZM219.547 78.9865C223.475 78.9865 226.83 77.8389 229.61 75.5437C232.435 73.2043 234.576 69.8498 236.033 65.48C237.533 61.0661 238.284 55.8357 238.284 49.7886C238.284 43.6975 237.533 38.467 236.033 34.0973C234.576 29.7275 232.435 26.395 229.61 24.0998C226.83 21.7605 223.475 20.5908 219.547 20.5908C215.663 20.5908 212.33 21.7605 209.549 24.0998C206.769 26.395 204.628 29.7275 203.127 34.0973C201.626 38.467 200.876 43.6975 200.876 49.7886C200.876 55.8357 201.626 61.0661 203.127 65.48C204.628 69.8498 206.769 73.2043 209.549 75.5437C212.33 77.8389 215.663 78.9865 219.547 78.9865Z" fill="black"/>
<path d="M127.782 99.5773C119.616 99.5773 112.466 97.5469 106.331 93.4861C100.239 89.4253 95.5607 83.6432 92.2944 76.1395C89.0282 68.6359 87.395 59.8523 87.395 49.7886C87.395 39.6367 89.0282 30.8089 92.2944 23.3053C95.5607 15.8017 100.239 10.0416 106.331 6.02496C112.466 2.00832 119.616 0 127.782 0C136.036 0 143.187 2.00832 149.234 6.02496C155.325 10.0416 160.003 15.8017 163.27 23.3053C166.58 30.8089 168.235 39.6367 168.235 49.7886C168.235 59.8523 166.58 68.6359 163.27 76.1395C160.003 83.6432 155.325 89.4253 149.234 93.4861C143.187 97.5469 136.036 99.5773 127.782 99.5773ZM127.782 78.9865C131.71 78.9865 135.065 77.8389 137.846 75.5437C140.671 73.2043 142.811 69.8498 144.268 65.48C145.769 61.0661 146.519 55.8357 146.519 49.7886C146.519 43.6975 145.769 38.467 144.268 34.0973C142.811 29.7275 140.671 26.395 137.846 24.0998C135.065 21.7605 131.71 20.5908 127.782 20.5908C123.898 20.5908 120.565 21.7605 117.785 24.0998C115.004 26.395 112.863 29.7275 111.362 34.0973C109.862 38.467 109.111 43.6975 109.111 49.7886C109.111 55.8357 109.862 61.0661 111.362 65.48C112.863 69.8498 115.004 73.2043 117.785 75.5437C120.565 77.8389 123.898 78.9865 127.782 78.9865Z" fill="black"/>
<path d="M8.07741 1.78763H70.0484V21.3191H27.1454L22.9743 59.124L23.2391 43.0354H27.344L22.9743 59.124H2.31729L8.07741 1.78763ZM38.7319 99.5773C32.8172 99.5773 27.2558 98.5842 22.0474 96.5979C16.8831 94.6117 12.381 91.8089 8.54087 88.1895C4.74493 84.5701 1.89797 80.3548 0 75.5437L20.3259 68.5256C21.7384 72.3657 24.0336 75.3671 27.2116 77.5299C30.4338 79.6927 34.1635 80.7741 38.4008 80.7741C41.623 80.7741 44.4699 80.1562 46.9417 78.9203C49.4135 77.6403 51.3114 75.8747 52.6356 73.6236C54.0039 71.3726 54.6881 68.8125 54.6881 65.9435C54.6881 62.9862 54.026 60.404 52.7018 58.1971C51.3776 55.946 49.4797 54.2025 47.0079 52.9666C44.5361 51.7308 41.7112 51.1128 38.5332 51.1128C35.1345 51.1128 32.1552 51.8411 29.5951 53.2977C27.0351 54.7101 25.115 56.6522 23.835 59.124H18.1411C19.0239 53.8274 20.8115 49.2811 23.5039 45.4851C26.1964 41.645 29.4627 38.7539 33.3028 36.8118C37.187 34.8697 41.314 33.8987 45.6837 33.8987C50.8921 33.8987 55.8577 35.2008 60.5806 37.8049C65.3035 40.365 69.1215 44.0506 72.0346 48.8617C74.9478 53.6729 76.4044 59.2564 76.4044 65.6124C76.4044 72.145 74.7933 77.9934 71.5712 83.1576C68.349 88.2777 63.8689 92.2944 58.1309 95.2075C52.437 98.1207 45.9706 99.5773 38.7319 99.5773Z" fill="black"/>
</svg>
