<svg width="260" height="98" viewBox="0 0 260 98" fill="none" xmlns="http://www.w3.org/2000/svg">
<path d="M180.586 58.5668L212.704 1.8241H236.287L204.365 58.5668L204.691 56.6775V58.5668H260V78.1107H180.586V58.5668ZM225.603 36.7427H246.384V96.1563H225.603V36.7427Z" fill="black"/>
<path d="M129.185 97.9805C121.151 97.9805 114.115 95.9826 108.078 91.987C102.084 87.9913 97.4808 82.3018 94.2669 74.9186C91.053 67.5353 89.446 58.8925 89.446 48.9902C89.446 39.0011 91.053 30.3149 94.2669 22.9316C97.4808 15.5483 102.084 9.88056 108.078 5.92834C114.115 1.97611 121.151 0 129.185 0C137.307 0 144.343 1.97611 150.293 5.92834C156.286 9.88056 160.89 15.5483 164.104 22.9316C167.361 30.3149 168.99 39.0011 168.99 48.9902C168.99 58.8925 167.361 67.5353 164.104 74.9186C160.89 82.3018 156.286 87.9913 150.293 91.987C144.343 95.9826 137.307 97.9805 129.185 97.9805ZM129.185 77.7199C133.051 77.7199 136.352 76.5907 139.088 74.3322C141.867 72.0304 143.974 68.7296 145.407 64.43C146.884 60.0869 147.622 54.9403 147.622 48.9902C147.622 42.9967 146.884 37.8502 145.407 33.5505C143.974 29.2508 141.867 25.9718 139.088 23.7134C136.352 21.4115 133.051 20.2606 129.185 20.2606C125.364 20.2606 122.084 21.4115 119.348 23.7134C116.612 25.9718 114.506 29.2508 113.029 33.5505C111.552 37.8502 110.814 42.9967 110.814 48.9902C110.814 54.9403 111.552 60.0869 113.029 64.43C114.506 68.7296 116.612 72.0304 119.348 74.3322C122.084 76.5907 125.364 77.7199 129.185 77.7199Z" fill="black"/>
<path d="M0 58.5668L32.1173 1.8241H55.7003L23.7785 58.5668L24.1042 56.6775V58.5668H79.4137V78.1107H0V58.5668ZM45.0163 36.7427H65.798V96.1563H45.0163V36.7427Z" fill="black"/>
</svg>
