<svg width="138" height="120" viewBox="0 0 138 120" fill="none" xmlns="http://www.w3.org/2000/svg">
<path fill-rule="evenodd" clip-rule="evenodd" d="M48.6069 39.4649C48.6069 39.4649 48.5615 39.5468 48.5389 39.5879C48.5163 39.629 69.9655 60.1398 69.9655 60.1398L43.4808 60.1398C43.4808 60.8687 43.498 61.5955 43.5322 62.3192C43.8482 69.0006 45.611 75.4207 48.6069 80.8148C48.993 81.51 49.3997 82.1882 49.8264 82.8478C53.9218 89.1783 59.5939 93.372 65.8224 94.6743C72.0508 95.9767 78.4269 94.3023 83.8037 89.9524C86.7591 87.5615 89.3059 84.4485 91.3241 80.8148C92.9777 77.8374 94.2764 74.5104 95.154 70.9446C96.1923 66.7256 96.6049 62.3198 96.3987 57.9604C96.2179 54.1386 95.5615 50.3524 94.4342 46.7593C92.021 39.0678 87.6081 32.7654 81.9893 28.9858C76.3705 25.2062 69.9146 24.1974 63.7828 26.1409C63.6439 26.185 63.5053 26.2304 63.3672 26.2773C60.6585 27.1972 58.0975 28.6705 55.7694 30.622C53.0065 32.938 48.6069 39.4649 48.6069 39.4649Z" fill="white"/>
<path fill-rule="evenodd" clip-rule="evenodd" d="M68.5715 19.3007C38.3073 19.3007 22.7015 31.7489 14.4769 41.18L9.25147e-05 28.4704C11.2905 15.5239 31.927 0 68.5715 0C105.216 0 125.853 15.5239 137.143 28.4704L122.666 41.18C114.441 31.7489 98.8358 19.3007 68.5715 19.3007ZM68.5714 100.699C38.3072 100.699 22.7014 88.2511 14.4768 78.82L0 91.5296C11.2904 104.476 31.9269 120 68.5714 120C105.216 120 125.852 104.476 137.143 91.5296L122.666 78.82C114.441 88.2511 98.8357 100.699 68.5714 100.699Z" fill="white"/>
</svg>
