<svg width="142" height="48" viewBox="0 0 142 48" fill="none" xmlns="http://www.w3.org/2000/svg">
<path d="M125.917 16.9323C124.715 19.4455 122.625 21.9587 119.647 24.472C116.67 26.9579 112.818 29.2525 108.092 31.356L104.814 25.6603C109.431 23.4476 112.886 21.3304 115.181 19.3089C117.503 17.2875 118.664 15.5664 118.664 14.1459C118.664 13.7362 118.596 13.4084 118.459 13.1625C117.995 12.2064 116.97 11.7283 115.386 11.7283C113.474 11.7283 110.441 12.4659 106.289 13.9411L104.609 7.67168C106.767 6.9341 108.966 6.34677 111.206 5.90969C113.474 5.47261 115.577 5.25407 117.517 5.25407C123.281 5.25407 126.436 7.23459 126.982 11.1956H131.612V4.76236H139.398V29.7989H131.612V26.111H125.138V20.3334H131.612V16.9323H125.917ZM118.91 30.1677C118.91 31.6428 118.992 32.8175 119.156 33.6916C119.32 34.5658 119.729 35.2761 120.385 35.8224C121.041 36.3414 122.051 36.601 123.417 36.601C127.706 36.601 132.855 35.3307 138.865 32.7902L141.283 38.9366C137.732 40.6303 134.549 41.8459 131.735 42.5835C128.922 43.3211 126.163 43.6899 123.458 43.6899C122.01 43.6899 120.44 43.5806 118.746 43.362C115.905 43.0342 113.897 41.7913 112.722 39.6332C111.548 37.4751 110.96 34.798 110.96 31.6018C110.96 30.9735 110.974 30.4955 111.001 30.1677H118.91Z" fill="#1D1D1F"/>
<path d="M90.2593 42.9113C91.2427 41.4088 91.9667 40.1659 92.4311 39.1825C92.9228 38.199 93.1686 37.3522 93.1686 36.6419C93.1686 35.7131 92.7316 34.9892 91.8574 34.4702C90.9286 33.9512 89.4944 33.6916 87.5549 33.6916C85.67 33.6916 83.4709 33.9238 80.9577 34.3882C78.4718 34.8253 76.0679 35.399 73.7459 36.1092L72.1068 30.2087C74.6747 29.3072 77.4064 28.6106 80.3021 28.1189C83.1977 27.6271 85.9705 27.3813 88.6203 27.3813C92.4994 27.3813 95.5316 27.8867 97.717 28.8974C98.8917 29.4438 99.7931 30.236 100.421 31.274C101.05 32.3121 101.364 33.555 101.364 35.0029C101.364 37.8712 100.121 41.122 97.6351 44.7552L90.2593 42.9113ZM92.0623 21.4397C89.1393 24.0076 86.2436 25.2915 83.3753 25.2915C81.8182 25.2915 80.4796 24.9364 79.3596 24.2261C78.2669 23.5159 77.4884 22.4368 77.024 20.989C74.4015 24.1032 71.5468 26.2749 68.4599 27.5042L64.4033 21.5626C66.8072 20.4426 68.815 19.0221 70.4268 17.3011C72.0385 15.5801 73.3361 13.6952 74.3195 11.6464C75.3303 9.57025 76.2454 7.17996 77.0649 4.47552L84.6046 6.68825C84.0309 8.35462 83.4163 9.95269 82.7606 11.4825C82.4602 12.5752 82.3099 13.5449 82.3099 14.3918C82.3099 15.3206 82.4738 16.0445 82.8016 16.5635C83.1294 17.0826 83.5255 17.4377 83.9899 17.6289C84.3177 17.7382 84.5773 17.7928 84.7685 17.7928C85.7792 17.7928 87.0358 17.1099 88.5383 15.744L92.0623 21.4397ZM93.0457 26.4798V4.76236H100.831V26.4798H93.0457Z" fill="#1D1D1F"/>
<path fill-rule="evenodd" clip-rule="evenodd" d="M19.5079 15.786C19.5079 15.786 19.4897 15.8187 19.4806 15.8352C19.4715 15.8516 28.0799 24.0559 28.0799 24.0559L17.4506 24.0559C17.4506 24.3475 17.4575 24.6382 17.4712 24.9277C17.598 27.6003 18.3055 30.1683 19.5079 32.3259C19.6629 32.604 19.8261 32.8753 19.9973 33.1391C21.641 35.6713 23.9174 37.3488 26.4171 37.8697C28.9169 38.3907 31.4758 37.7209 33.6338 35.981C34.8198 35.0246 35.842 33.7794 36.652 32.3259C37.3156 31.135 37.8368 29.8042 38.1891 28.3778C38.6058 26.6903 38.7714 24.9279 38.6886 23.1842C38.6161 21.6554 38.3526 20.141 37.9002 18.7037C36.9317 15.6271 35.1606 13.1062 32.9056 11.5943C30.6505 10.0825 28.0595 9.67899 25.5986 10.4564C25.5428 10.474 25.4872 10.4922 25.4318 10.5109C24.3447 10.8789 23.3168 11.4682 22.3825 12.2488C21.2736 13.1752 19.5079 15.786 19.5079 15.786Z" fill="#7046F7"/>
<path fill-rule="evenodd" clip-rule="evenodd" d="M27.5205 7.72028C15.3742 7.72028 9.11102 12.6995 5.81013 16.472L3.22192e-05 11.3881C4.53131 6.20954 12.8136 0 27.5205 0C42.2274 0 50.5096 6.20954 55.0409 11.3881L49.2308 16.472C45.9299 12.6995 39.6667 7.72028 27.5205 7.72028ZM27.5204 40.2797C15.3742 40.2797 9.11099 35.3005 5.8101 31.528L0 36.6119C4.53128 41.7905 12.8135 48 27.5204 48C42.2273 48 50.5096 41.7905 55.0409 36.6119L49.2308 31.528C45.9299 35.3005 39.6667 40.2797 27.5204 40.2797Z" fill="#1D1D1F"/>
</svg>
