<svg width="511" height="391" viewBox="0 0 511 391" fill="none" xmlns="http://www.w3.org/2000/svg">
<path d="M0.222196 349.357C-1.49012e-08 246.646 0 144.291 0 41.4684C1.00692 27.2824 7.77747 16.9372 18.921 9.3523C26.8696 3.94212 35.5078 0.305223 45.4134 0.585088C51.5522 0.758527 57.7022 0.336832 64.2163 0.96142C120.056 43.4545 174.314 87.4043 229.297 130.431C236.768 136.277 244.123 142.27 251.638 148.064C254.894 150.575 257.233 150.477 260.414 147.99C285.191 128.617 309.786 109.014 334.497 89.5588C359.335 70.0035 384.12 50.3806 408.938 30.8005C418.87 22.9652 428.727 15.036 438.741 7.30377C441.332 5.30292 444.725 4.35367 446.921 1.21427C458.198 0.674211 469.207 -0.885337 479.895 2.71658C491.661 6.68189 500.865 13.9904 507.448 24.5519C510.455 29.3756 510.986 34.8431 511.777 40.6508C512 143.354 512 245.708 512 348.531C511.023 362.724 504.25 373.084 493.11 380.653C485.173 386.046 476.524 389.815 466.625 389.375C460.371 389.097 454.022 390.412 447.565 388.023C445.681 383.437 445.576 378.964 445.577 374.461C445.587 283.989 445.599 193.517 445.521 103.046C445.519 100.405 447.086 96.6799 444.006 95.3246C441.403 94.1787 439.354 97.3611 437.329 98.9202C394.31 132.042 351.258 165.121 308.213 198.209C293.954 209.171 279.654 220.082 265.487 231.163C263.13 233.007 260.757 234.85 257.531 236.097C253.886 237.3 251.764 235.088 249.568 233.424C228.332 217.322 207.288 200.969 186.156 184.732C148.118 155.505 110.088 126.267 72.0843 96.9945C70.7984 96.0041 69.5298 94.2878 67.7793 95.0609C65.6858 95.9856 66.4516 98.271 66.4491 99.9939C66.4012 133.488 66.4161 166.981 66.4152 200.475C66.4137 259.131 66.4221 317.786 66.4015 376.442C66.4003 379.925 66.7272 383.461 65.1292 387.183C64.4093 388.236 63.733 388.71 62.9062 388.928C42.1963 394.392 17.5192 385.022 5.57881 367.227C2.01004 361.908 0.961117 355.902 0.222196 349.357Z" fill="#F44336"/>
<path d="M446.395 386.452C444.529 386.83 442.866 386.986 441.203 386.986C315.749 386.987 190.295 386.976 64.3654 386.952C63.9271 367.777 63.9924 348.616 63.9953 329.455C64.0073 251.138 64.0003 172.82 64.0003 94.5031C64.0003 92.578 64.0003 90.653 64.0003 87.7725C69.1447 91.6957 73.4765 94.9756 77.7836 98.2875C135.886 142.966 193.984 187.65 252.096 232.316C253.392 233.312 254.85 234.098 256.585 234.994C259.074 234.967 260.633 236.074 262.255 237.35C300.527 267.474 338.753 297.654 376.948 327.876C398.982 345.311 421.055 362.7 443.124 380.093C445.147 381.687 447.091 383.185 446.395 386.452Z" fill="#ECEFF1"/>
<path d="M64.8372 3.44789C66.6555 3.10357 68.6528 3.00763 70.6501 3.00751C194.223 3.00041 317.796 3.00078 441.369 3.00487C443.034 3.00493 444.699 3.06109 446.854 3.12245C430.56 16.5319 413.82 29.9644 396.985 43.2774C351.279 79.4224 305.523 115.504 259.829 151.666C257.389 153.597 255.733 154.56 252.676 152.137C190.189 102.589 127.591 53.1786 64.8372 3.44789Z" fill="#ECEFF1"/>
<path d="M446.5 386.782C441.565 380.485 434.795 376.701 428.865 371.988C388.284 339.738 347.592 307.625 306.916 275.493C292.314 263.958 277.655 252.494 263.022 240.998C260.937 239.359 258.749 237.832 257.06 235.318C272.833 222.64 288.682 210.212 304.635 197.92C350.827 162.327 397.061 126.788 443.286 91.237C444.561 90.256 445.914 89.3755 448.016 87.8955C448.016 187.802 448.016 286.874 448.032 386.402C447.634 386.845 447.221 386.831 446.5 386.782Z" fill="#CFD8DC"/>
</svg>
