<svg width="142" height="48" viewBox="0 0 142 48" fill="none" xmlns="http://www.w3.org/2000/svg">
<path d="M123.653 15.6393C122.578 17.8855 120.711 20.1316 118.049 22.3778C115.388 24.5996 111.946 26.6505 107.722 28.5304L104.792 23.4399C108.918 21.4623 112.007 19.5701 114.058 17.7634C116.133 15.9567 117.171 14.4185 117.171 13.1489C117.171 12.7827 117.11 12.4897 116.987 12.27C116.572 11.4155 115.657 10.9882 114.241 10.9882C112.532 10.9882 109.822 11.6474 106.111 12.9658L104.609 7.36256C106.538 6.70335 108.503 6.17843 110.505 5.78779C112.532 5.39715 114.412 5.20183 116.145 5.20183C121.297 5.20183 124.117 6.97192 124.605 10.5121H128.743V4.76236H135.702V27.1388H128.743V23.8427H122.957V18.6789H128.743V15.6393H123.653ZM117.39 27.4684C117.39 28.7868 117.464 29.8366 117.61 30.6179C117.757 31.3992 118.123 32.034 118.709 32.5223C119.295 32.9862 120.198 33.2181 121.419 33.2181C125.252 33.2181 129.854 32.0828 135.225 29.8122L137.386 35.3056C134.212 36.8193 131.368 37.9058 128.853 38.565C126.338 39.2242 123.872 39.5538 121.455 39.5538C120.161 39.5538 118.758 39.4562 117.244 39.2608C114.705 38.9678 112.91 37.857 111.86 35.9282C110.81 33.9994 110.286 31.6067 110.286 28.7501C110.286 28.1886 110.298 27.7613 110.322 27.4684H117.39Z" fill="#1D1D1F"/>
<path d="M87.5121 38.8275C88.3911 37.4847 89.0381 36.3738 89.4531 35.4949C89.8926 34.6159 90.1123 33.859 90.1123 33.2243C90.1123 32.3941 89.7217 31.7471 88.9404 31.2833C88.1103 30.8194 86.8285 30.5874 85.095 30.5874C83.4104 30.5874 81.445 30.795 79.1988 31.21C76.977 31.6007 74.8285 32.1134 72.7532 32.7482L71.2883 27.4745C73.5833 26.6688 76.0248 26.0462 78.6128 25.6068C81.2008 25.1673 83.6789 24.9475 86.0472 24.9475C89.5141 24.9475 92.2242 25.3992 94.1774 26.3026C95.2273 26.7909 96.033 27.4989 96.5945 28.4267C97.1561 29.3545 97.4368 30.4654 97.4368 31.7593C97.4368 34.3229 96.3259 37.2283 94.1042 40.4755L87.5121 38.8275ZM89.1235 19.6373C86.5111 21.9323 83.9231 23.0798 81.3595 23.0798C79.9679 23.0798 78.7715 22.7624 77.7705 22.1276C76.7939 21.4928 76.0981 20.5284 75.683 19.2344C73.3392 22.0177 70.7878 23.9587 68.0289 25.0574L64.4033 19.7471C66.5518 18.7461 68.3463 17.4765 69.7868 15.9384C71.2273 14.4002 72.387 12.7156 73.2659 10.8845C74.1693 9.02893 74.9872 6.89261 75.7196 4.47552L82.4582 6.45315C81.9455 7.94246 81.3961 9.37074 80.8102 10.738C80.5416 11.7146 80.4073 12.5813 80.4073 13.3382C80.4073 14.1683 80.5538 14.8153 80.8468 15.2792C81.1398 15.7431 81.4938 16.0605 81.9089 16.2314C82.2018 16.329 82.4338 16.3779 82.6047 16.3779C83.508 16.3779 84.6311 15.7675 85.974 14.5467L89.1235 19.6373ZM90.0024 24.1419V4.73188H96.9607V24.1419H90.0024Z" fill="#1D1D1F"/>
<path fill-rule="evenodd" clip-rule="evenodd" d="M19.2893 15.1786C19.2893 15.1786 19.273 15.2079 19.2649 15.2226C19.2568 15.2373 26.9506 22.5699 26.9506 22.5699L17.4506 22.5699C17.4506 22.8305 17.4567 23.0903 17.469 23.349C17.5824 25.7377 18.2147 28.0328 19.2893 29.9612C19.4278 30.2098 19.5737 30.4522 19.7267 30.688C21.1957 32.9512 23.2303 34.4504 25.4644 34.916C27.6986 35.3816 29.9856 34.783 31.9143 33.2279C32.9744 32.3732 33.8879 31.2603 34.6118 29.9612C35.205 28.8968 35.6708 27.7074 35.9856 26.4326C36.3581 24.9243 36.5061 23.3493 36.4321 21.7908C36.3672 20.4245 36.1318 19.0709 35.7274 17.7864C34.8618 15.0367 33.2789 12.7836 31.2635 11.4324C29.248 10.0812 26.9323 9.72052 24.7328 10.4153C24.683 10.4311 24.6333 10.4473 24.5838 10.4641C23.6122 10.7929 22.6935 11.3196 21.8584 12.0173C20.8674 12.8453 19.2893 15.1786 19.2893 15.1786Z" fill="#7046F7"/>
<path fill-rule="evenodd" clip-rule="evenodd" d="M24.5964 6.9C13.7407 6.9 8.14295 11.3502 5.19278 14.7218L0 10.1782C4.04983 5.54978 11.4521 0 24.5964 0C37.7407 0 45.1429 5.54978 49.1928 10.1782L44 14.7218C41.0498 11.3502 35.4521 6.9 24.5964 6.9ZM24.5964 36C13.7407 36 8.14292 31.5498 5.19275 28.1782L-2.96278e-05 32.7218C4.0498 37.3502 11.4521 42.9 24.5964 42.9C37.7407 42.9 45.1429 37.3502 49.1927 32.7218L44 28.1782C41.0498 31.5498 35.4521 36 24.5964 36Z" fill="#1D1D1F"/>
</svg>
